<svg width="16" height="4" viewBox="0 0 16 4" fill="none" xmlns="http://www.w3.org/2000/svg">
<path d="M0.285767 2C0.285767 1.47786 0.49648 0.977096 0.871553 0.607884C1.24663 0.238671 1.75533 0.03125 2.28577 0.03125C2.8162 0.03125 3.32491 0.238671 3.69998 0.607884C4.07505 0.977096 4.28577 1.47786 4.28577 2C4.28577 2.52215 4.07505 3.0229 3.69998 3.39212C3.32491 3.76133 2.8162 3.96875 2.28577 3.96875C1.75533 3.96875 1.24663 3.76133 0.871553 3.39212C0.49648 3.0229 0.285767 2.52215 0.285767 2ZM6.00005 2C6.00005 1.47786 6.21077 0.977096 6.58584 0.607884C6.96091 0.238671 7.46962 0.03125 8.00005 0.03125C8.53049 0.03125 9.03919 0.238671 9.41427 0.607884C9.78934 0.977096 10.0001 1.47786 10.0001 2C10.0001 2.52215 9.78934 3.0229 9.41427 3.39212C9.03919 3.76133 8.53049 3.96875 8.00005 3.96875C7.46962 3.96875 6.96091 3.76133 6.58584 3.39212C6.21077 3.0229 6.00005 2.52215 6.00005 2ZM13.7143 0.03125C14.2448 0.03125 14.7535 0.238671 15.1286 0.607884C15.5036 0.977096 15.7143 1.47786 15.7143 2C15.7143 2.52215 15.5036 3.0229 15.1286 3.39212C14.7535 3.76133 14.2448 3.96875 13.7143 3.96875C13.1839 3.96875 12.6752 3.76133 12.3001 3.39212C11.9251 3.0229 11.7143 2.52215 11.7143 2C11.7143 1.47786 11.9251 0.977096 12.3001 0.607884C12.6752 0.238671 13.1839 0.03125 13.7143 0.03125Z" fill="black"/>
</svg>
