<svg width="49" height="49" viewBox="0 0 49 49" fill="none" xmlns="http://www.w3.org/2000/svg">
<path d="M30.4062 48.0254C28.5145 48.4937 26.5365 48.7441 24.5 48.7441C20.6376 48.7441 16.9847 47.8488 13.7354 46.2568L19.4785 31.458L22.5273 29.6416L30.4062 48.0254ZM47.1758 14.957C48.3502 17.8215 49 20.9567 49 24.2441C49 32.1593 45.245 39.1958 39.4209 43.6748L31.1943 24.4785L47.1758 14.957ZM5.5332 39.752C2.07548 35.528 0 30.1287 0 24.2441C0 11.9155 9.1066 1.71563 20.96 0L5.5332 39.752ZM31.4033 0.731445C35.2724 1.86556 38.7435 3.92889 41.5605 6.66309L25.3545 16.3174L31.4033 0.731445Z" fill="white"/>
</svg>
