<svg width="34" height="34" viewBox="0 0 34 34" fill="none" xmlns="http://www.w3.org/2000/svg">
<path d="M21.0982 33.4987C19.7856 33.8253 18.4131 34 17 34C14.32 34 11.7853 33.3755 9.53065 32.2651L13.5157 21.9426L15.6312 20.6756L21.0982 33.4987Z" fill="black"/>
<path d="M32.7342 10.4328C33.5491 12.4308 34 14.6177 34 16.9108C34 22.4318 31.3945 27.3398 27.3533 30.464L21.6451 17.0742L32.7342 10.4328Z" fill="black"/>
<path d="M3.83937 27.7278C1.44013 24.7815 0 21.0154 0 16.9108C0 8.31127 6.31886 1.19668 14.5436 0L3.83937 27.7278Z" fill="black"/>
<path d="M21.7901 0.510198C24.4747 1.30126 26.8832 2.74048 28.8379 4.64763L17.5929 11.3817L21.7901 0.510198Z" fill="black"/>
</svg>
