<svg width="14" height="18" viewBox="0 0 14 18" fill="none" xmlns="http://www.w3.org/2000/svg">
<path d="M12.4906 5.29473C12.9464 4.85527 12.9464 4.1416 12.4906 3.70215C12.0349 3.2627 11.2948 3.2627 10.8391 3.70215L7.00001 7.40762L3.1573 3.70566C2.70157 3.26621 1.96147 3.26621 1.50574 3.70566C1.05001 4.14512 1.05001 4.85879 1.50574 5.29824L5.34845 9.0002L1.50938 12.7057C1.05365 13.1451 1.05365 13.8588 1.50938 14.2982C1.96511 14.7377 2.70522 14.7377 3.16095 14.2982L7.00001 10.5928L10.8427 14.2947C11.2984 14.7342 12.0386 14.7342 12.4943 14.2947C12.95 13.8553 12.95 13.1416 12.4943 12.7021L8.65157 9.0002L12.4906 5.29473Z" fill="black"/>
</svg>
