<svg xmlns="http://www.w3.org/2000/svg" width="167" height="193" fill="none"><path fill="url(#a)" d="M152 114H4v53c0 7.732 6.268 14 14 14h119c8.284 0 15-6.716 15-15v-52Z"/><path fill="#1D6C96" d="M108.34 151.776s3.376-1.592 4.41-2.102c1.033-.511 1.76.187 2.331 1.49.572 1.303 2.477 3.456 5.025 4.615 2.463 1.119 9.245.564 9.289.546 0 0-3.876 5.845-8.601 6.514-4.725.668-9.03-.678-10.236-3.556-1.205-2.879-2.221-7.51-2.221-7.51l.003.003Z"/><path fill="#3B4C5A" d="m156 111-155.942.332L0 116l155.917-.969"/><path fill="#1D6C96" d="m135.885 138.83 3.821-3.611s.986-1.358 2.355.63c1.372 1.987 2.6 6.291 5.764 5.03 3.162-1.261 5.352-1.737 5.352-1.737s-.177 5.414-3.081 7.359c-2.903 1.946-6.185 2.66-8.307.837-2.119-1.824-6.419-5.745-6.324-6.624.096-.879.42-1.884.42-1.884Z"/><path fill="#3B4C5A" d="M48.586 39.277c-.394-.452-.542-1.13-.233-1.86.108-.26.244-.502.392-.739.102-.764.204-1.525.303-2.289.12-.9.333-1.268-.36-1.867-1.44-1.245-2.65-2.16-3.397-4a8.221 8.221 0 0 1-.463-4.724c.139-.683.429-1.315.603-1.987.272-1.062.134-2.103.018-3.177-.163-1.507-.247-3.069.272-4.521.61-1.704 1.859-2.516 3.477-3.189a4.311 4.311 0 0 0 1.39-.931c-.456-2.603.906-5.419 3.655-6.205 1.643-.47 3.136-.131 4.636-1.141C60.484 1.569 61.844.294 63.847.046c3.092-.384 5.48 1.76 8.352 2.393 3.372.743 7.302-.396 9.615 2.967.5.725.719 1.59 1.458 2.128.58.423 1.29.683 1.928 1.002 1.301.644 2.554 1.486 3.073 2.905.549 1.505.123 3.07-.736 4.369-.798 1.206-2.629 2.436-2.625 3.977.005 1.643.855 2.969.069 4.614-.728 1.52-2.174 2.337-3.679 2.933-.915.362-1.847.622-2.592 1.297-.682.62-1.124 1.465-1.603 2.237-.908 1.476-1.887 2.789-3.293 3.828-2.658 1.969-6.311 2.712-9.511 1.797-.687-.197-1.355-.574-2.06-.694-.94-.16-1.598.253-2.321.816-1.713 1.333-3.257 2.775-5.144 3.887-1.209.711-2.686 1.627-4.161 1.294-1.412-.318-1.913-1.353-2.026-2.524l-.005.005Z"/><path fill="#163F3C" d="M66.102 86.447s.238 1.088.904 1.512c.667.423 1.876.73 1.176 1.453-.7.723-.857 1.21-.19 1.692.667.483 2.66 1.758 1.9 2.209-.759.45-1.098.856-1.098.856s-9.172.527-11.663 2.21c-2.488 1.681-9.812-.425-12.59-2.67-2.777-2.244-11.012-3.299-11.012-3.299s-.845.185-.572-.588c.274-.773 1.339-2.429.889-3.184-.45-.755 1.611-1.775 1.611-1.775l20.754-1.501 9.89 3.087.001-.002Z"/><path fill="#EDCBB7" d="m70.678 30.736 6.894 1.57s3.806.257 5.88 5.81c2.072 5.552.988 3.216 2.072 5.552 1.084 2.336 2.951 5.646 3.182 9.311.229 3.668 5.004 25.498 5.004 25.498l3.035 16.493s1.003 5.174-4.46 4.1c-5.466-1.074-6.53-2.03-7.7-4.755S81.528 80.554 79.1 76.87c-2.428-3.68-2.998-4.986-2.998-4.986s-1.041 3.087-4.33 6.377c-3.288 3.29-5.411 4.04-5.266 6.01.145 1.97.538 2.465.538 2.465s.783.963-1.034.502c-1.817-.461-4.053-2.83-7.937-2.27-3.883.56-8.586 1.302-12.34-.165-3.755-1.468-11.498 1.08-11.498 1.08s-1.697.087-.844-1.245c.853-1.33 1.213-8.844 1.213-8.844s1.813-15.263 3.162-19.562c1.349-4.298 2.655-17.305 8.432-22.284 4.914-4.362 10.293-3.964 10.293-3.964l14.186.744.002.007Z"/><path fill="#F57373" d="M77.174 94.731s12.497-2.7 21.01.934c8.513 3.632 5.952 7.624 5.952 7.624s-.743 4.453-7.66 4.244c-6.918-.205-18.48.602-18.48.602s-4.91-1.502-4.287-6.499c.625-4.998 3.465-6.905 3.465-6.905Z"/><path fill="#F57373" d="M99.83 96.828s5.237-.858 8.312 2.752c3.074 3.61 5.662 7.612 8.499 10.133 2.837 2.522 12.681 17.498 15.209 21.227.354 3.494-3.576 7.813-6.962 8.657 0 0-6.634-6.829-10.289-9.172-3.654-2.341-8.346-10.736-9.76-13.282-1.414-2.547-7.402-3.806-7.402-3.806"/><path fill="#F69586" d="M76.627 111.288s5.381 1.109 9.47.214c4.09-.894 7.332-3.03 7.827-5.993.494-2.963 1.212-8.826-2.292-10.49-3.505-1.665-12.205-.759-12.205-.759s-6.04.888-5.763 7.394c.28 6.506.425 8.473 1.42 9.112.997.639 1.543.519 1.543.519v.003Z"/><path fill="#F69586" d="M83.467 107.264s1.125 6.523 1.266 10.402c.14 3.879 3.3 11.768 6.74 17.024 3.439 5.254 5.966 11.566 6.358 12.053.392.486 10.63-3.82 10.63-3.82s-4.923-14.586-5.929-21.801c-1.005-7.218-4.94-18.655-6.417-21.48-1.477-2.823-2.795-5.304-6.91-5.596-4.114-.292-6.88 1.502-6.88 1.502"/><path fill="#163F3C" d="M34.022 89.579s-4.969 2.934-5.695 11.357c-.726 8.422.33 9.333.33 9.333s.025 1.42 3.42 1.251c3.394-.169 42.968.331 42.968.331l7.88-.052s-5.578.12-6.08-3.475c-.502-3.595-.646-5.558.88-9.027 1.527-3.468 3.472-5.03 5.715-5.235 0 0-.784-.97-4.998-.622-4.213.347-12.819.227-12.819.227s-11.27 3.025-14.318 1.693c-3.049-1.332-11.824-4.835-14.52-5.389-2.695-.554-2.768-.394-2.768-.394l.005.002Z"/><path fill="#F69586" d="M60.883 91.291s-1.44 14.376.8 14.097c3.068-.382 5.615.776 5.615.776s.275-.059.787.971c.512 1.029 2.452 2.036 2.964 3.065s.16 5.959-.301 7.771l-.617 2.418s-.424.948-1.122.244c-.698-.705-1.663-2.492-1.722-2.765-.059-.273-1.94-1.005-2.547-1.158-.608-.154-1-.639-1.845-1.883s-.931-2.936-4.118-3.099c-3.188-.162-5.042.526-5.425-2.53-.383-3.057-1.917-14.424-1.172-16.015.748-1.59 8.705-1.894 8.705-1.894l-.002.002Z"/><path fill="#F4DBCC" d="M61.083 85.752s.623 4.17.102 5.717c-.52 1.55-.462 1.823-.462 1.823s-2.484-.89-5.216-.293c-2.733.6-3.706 1.387-3.706 1.387s-1.067-7.515-.546-9.065c.52-1.55 5.286-2.02 5.286-2.02s3.646-.352 4.141.608c.496.96.401 1.84.401 1.84v.003Z"/><path fill="#F57373" d="M58.78 28.988s-4.06-.258-2.013 3.87c2.047 4.13 8.352 7.872 10.501 11.274 2.15 3.403 2.728 2.133 3.036.923.308-1.21.794-4.212-1.704-7.794-2.5-3.582-3.854-5.858-5.184-6.71-1.33-.853-4.633-1.563-4.633-1.563h-.003Z"/><path fill="#F57373" d="M67.421 41.495s2.14-5.262 2.825-8.308c.684-3.046.68-5.69.68-5.69l3.224-3.732-14.824-12.989s.438 5.951-.523 10.695c-.96 4.746-1.498 7.509-1.498 7.509"/><path fill="#F69586" d="M74.988 12.117c.477.769 1.096 1.907 1.593 3.372.186.543.755 2.317.884 5.48.179 4.388-.273 10.412-5.994 9.69-5.142-.65-7.855-1.106-9-2.686-1.147-1.58-1.766-4.418-1.766-4.418s-.226-1.032-1.983-1.998c-1.758-.967-4.513-2.257-3.77-5.932.744-3.678 1.463-4.645 3.009-6.064 0 0 .628-.552 1.35-.996 1.934-1.183 7.14-2.089 11.181-.04 1.169.593 2.263 1.444 2.326 1.493a14.59 14.59 0 0 1 2.172 2.1l-.002-.002Z"/><path fill="#F4DBCC" d="M43.695 40.237c2.34-5.08 4.62-7.904 7.9-8.151l-7.9 8.15ZM51.595 32.086c1.033-.08 2.17.1 3.436.545a4.594 4.594 0 0 1 1.475.875c2.32 1.977 2.117 5.422 2.05 6.22 0 0-.487 7.463.536 16.716 1.022 9.252 2.359 16.682 2.359 16.682s1.167 4.035.647 5.577c-.52 1.545-.683 4.725-.683 4.725s.016.97-1.493.814c-1.51-.159-1.903-.645-4.692-.321-2.79.323-5.4 1.465-5.4 1.465s-1.093.238-1.877-.733c-.786-.972.221-2.908.221-2.908s.914-1.059-.502-3.608c-1.416-2.55-5.782-10.747-5.782-10.747s-2.627-2.859-2.174-11.25c.454-8.392 3.2-14.14 3.2-14.14.26-.614.521-1.2.779-1.76"/><path fill="#2E3B46" d="M49.555 23.32c.51-.398 1.078-.762 1.66-1.124.554-1.421.954-2.93 1.513-4.365.505-1.29 1.196-2.458 1.866-3.637.477-1.867.953-3.702 1.971-5.351 1.449-2.347 4.821-1.586 7.107-1.652 3.278-.093 6.55-.26 9.817-.496.991-.072 1.951.448 2.223 1.64.226.99-.353 2.35-1.336 2.42a251.51 251.51 0 0 1-8.366.475 222.58 222.58 0 0 1-4.25.127c-.587.011-1.465-.14-2.11-.041l-.013.02c.045.175.079.358.09.557.181 3.055.231 6.284-1.156 8.934-1.005 1.92-2.608 3.012-4.242 4.077-.229.405-.464.81-.702 1.211-.129.233-.265.464-.412.688-.833 1.272-2.329.912-3.049-.054a1.964 1.964 0 0 1-.643-.514c-.629-.75-.76-2.297.032-2.917v.002Z"/><path fill="#00C6B6" d="M98.04 146.077c3.595-.35 6.983-1.795 10.277-3.755 0 0 2.984 8.552 4.424 9.95 1.44 1.398-2.602 3.712-4.712 4.462-2.11.75-5.44 1.195-5.44 1.195-.339-.973-2.633-6.289-4.642-10.973l-.386-.888.48.012-.001-.003ZM139.72 139.21l-7.784-8.606c-1.441-.856-3.817 1.39-7.62 8.364l10.007 10.662c4.76-2.772 6.181-6.335 5.397-10.418v-.002Z"/><path fill="#F69586" d="M59.977 20.857s-1.177-1.441-3.244-.431.016 3.952.016 3.952 1.51 1.651 3.269 1.837c1.76.185 2.246-.202 2.613-1.129"/><path fill="#2C8CA7" d="M134.721 142.807s1.381-5.798 5.488-5.492c0 0 3.22 3.107 5.349 3.091 2.129-.016 9.04-.956 12.039-3.814 2.998-2.859 4.754-3.031 4.754-3.031s.208-.245 1.944.582c1.739.828-5.276 9.742-5.276 9.742s-6.281 6.452-8.742 8.463c-2.461 2.011-3.983-.079-3.983-.079l-11.573-9.464v.002Z"/><path fill="#29698C" d="m131.952 142.95 2.037-2.466s1.222-1.698 2.61.439c1.387 2.138 4.026 3.492 7.046 4.427 2.114.654 10.042-1.834 12.007-2.16 1.321-.22 2.24 1.281 1.432 2.35-1.072 1.417-7.939 5.45-9.44 7.007-3.501 3.627-5.591 5.753-5.591 5.753s-9.546-8.884-10.723-10.344c-1.177-1.461-2.144-1.947-.759-3.476l1.383-1.528-.002-.002Z"/><path fill="#3B4C5A" d="m164.26 134.023 2.542 1.649s-2.687 6.073-6.502 9.408c-3.816 3.332-10.551 9.675-11.777 11.095-.92 1.067-2.771 3.092-3.632 4.03a.621.621 0 0 1-.918-.002l-2.687-2.533 11.213-9.901s11.609-10.679 11.759-13.746h.002Z"/><path fill="#2C8CA7" d="M108.213 156.424s2.537-5.418 6.503-4.285c0 0 2.527 3.71 4.62 4.126 2.093.417 9.064.896 12.589-1.306 3.525-2.202 5.283-2.014 5.283-2.014s.254-.199 1.79.969c1.536 1.167-7.159 8.505-7.159 8.505s-7.475 5.067-10.299 6.545c-2.824 1.475-3.892-.888-3.892-.888l-9.432-11.652h-.003Z"/><path fill="#29698C" d="M130.262 162.764s-.479-2.19-5.13-1.173c-4.651 1.016-13.537-4.301-13.537-4.301s-1.659-.981-2.958-2.99c-1.298-2.01-2.586-1.344-2.586-1.344l-4.275 1.507s-1.979.05 1.943 7.511c3.921 7.462 6.006 10.447 6.006 10.447s4.711-.744 9.396-2.915c4.685-2.171 11.141-6.74 11.141-6.74v-.002Z"/><path fill="#3B4C5A" d="M137.76 152.904s1.066-.252 2.014.34a11.615 11.615 0 0 1 1.633 1.237s.172 1.059-2.403 4.135c-2.574 3.077-6.546 7.196-9.837 9.087-3.292 1.89-4.798 2.484-9.786 4.643-4.986 2.156-7.827 2.924-7.827 2.924l-1.731-2.961s8.949-2.759 14.96-6.47c6.012-3.711 10.853-9.029 11.878-10.585 1.025-1.555 1.095-2.35 1.095-2.35h.004Z"/><path fill="#00C6B6" d="M25.54 102.276s-.794 1.407-.617 2.679c0 0-.045 5.053-4.847 5.931 0 0-.689.069-1.67.087l-.754.968.852 1.859-2.13-1.772.809-1.065c-.4-.014-.818-.038-1.239-.081l-.848 1.087.853 1.86-2.13-1.773 1.011-1.331c-.146-.029-.292-.057-.434-.092-4.54-.73-6.878-2.343-6.878-2.343.485.045 1.764-.176 1.764-.176-.662-.044-3.658-1.23-3.658-1.23.948.109 2.87-.316 4.797-.852-1.285-.737-9.098-5.223-9.383-5.342-.308-.132 1.235-2.198 4.937-1.625l5.554 4.043s8.374-.176 8.2-1.583c0 0 .748-3.294 3.48-2.9 0 0 1.596.217 2.285 1.308a3.584 3.584 0 0 1 2.013.572s-1.007.344-1.707.66a3.515 3.515 0 0 1-.256 1.109l-.004.002Z"/><defs><linearGradient id="a" x1="78" x2="78" y1="114" y2="174.5" gradientUnits="userSpaceOnUse"><stop stop-color="#653116"/><stop offset="1" stop-color="#CD6911"/></linearGradient></defs></svg>