<svg width="21" height="20" viewBox="0 0 21 20" fill="none" xmlns="http://www.w3.org/2000/svg">
<path fill-rule="evenodd" clip-rule="evenodd" d="M17.207 5.29279C17.3945 5.48031 17.4998 5.73462 17.4998 5.99979C17.4998 6.26495 17.3945 6.51926 17.207 6.70679L9.20704 14.7068C9.01951 14.8943 8.76521 14.9996 8.50004 14.9996C8.23488 14.9996 7.98057 14.8943 7.79304 14.7068L3.79304 10.7068C3.61088 10.5182 3.51009 10.2656 3.51237 10.0034C3.51465 9.74119 3.61981 9.49038 3.80522 9.30497C3.99063 9.11956 4.24144 9.01439 4.50364 9.01211C4.76584 9.00983 5.01844 9.11063 5.20704 9.29279L8.50004 12.5858L15.793 5.29279C15.9806 5.10532 16.2349 5 16.5 5C16.7652 5 17.0195 5.10532 17.207 5.29279Z" fill="black"/>
</svg>
